PathFileType	4	(X/Y/Z)	C:/Users/beibeiliu/ov580/test_trc/User1\sequence.30_training_dense_right.trc
DataRate	CameraRate	NumFrames	NumMarkers	Units	OrigDataRate	OrigDataStartFrame	OrigNumFrames
120	120	16	19	mm	120	199	227
Frame#	Time	ThumbCMC			ThumbMCP			ThumbIP			ThumbTip			IndexMCP			IndexPIP			IndexTip			MiddleMCP			MiddlePIP			MiddleTip			RingMCP			RingPIP			RingTip			PinkyMCP			PinkyPIP			PinkyTip			BackHand1			BackHand2			BackHand3	
		X0	Y0	Z0	X1	Y1	Z1	X2	Y2	Z2	X3	Y3	Z3	X4	Y4	Z4	X5	Y5	Z5	X6	Y6	Z6	X7	Y7	Z7	X8	Y8	Z8	X9	Y9	Z9	X10	Y10	Z10	X11	Y11	Z11	X12	Y12	Z12	X13	Y13	Z13	X14	Y14	Z14	X15	Y15	Z15	X16	Y16	Z16	X17	Y17	Z17	X18	Y18	Z18	
198	1.65	124.096	-32.9666	82.6438	108.463	-59.9442	75.4015	92.0751	-79.68	61.3238	75.9043	-97.6108	56.2478	139.331	-29.4997	1.94456	142.366	-36.124	-28.5898	142.07	-43.4753	-54.5847	175.869	-21.9805	-4.04368	174.912	-22.9318	-34.095	183.758	-25.5172	-62.4514	197.761	-27.0819	7.86335	205.839	-25.132	-21.708	209.424	-29.3323	-42.4495	220.734	-42.6642	28.9172	235.493	-48.1476	13.0375	246.066	-44.1909	-2.73937	189.373	-17.4713	57.4631	186.341	-5.88944	86.078	156.146	-9.24298	68.9259	
199	1.65833	122.648	-35.6883	78.5061	104.573	-66.313	72.1466	94.8555	-85.9336	59.0087	83.2871	-104.069	55.9489	141.047	-29.8724	-2.2584	136.97	-33.1296	-25.8459	142.992	-40.1019	-50.8911	172.353	-19.9323	-5.50229	173.579	-20.8803	-31.1924	185.277	-22.8427	-62.6171	195.977	-25.0957	6.76247	200.665	-22.6518	-21.4746	210.774	-24.4971	-45.6462	218.768	-40.7186	30.5767	233.102	-43.9626	11.0687	243.439	-40.6625	-6.77218	190.251	-16.4591	53.6574	186.111	-5.70519	88.8544	149.615	-7.54048	67.3189	
200	1.66667	121.418	-36.6514	81.0744	108.688	-66.4405	76.0405	96.0265	-89.4033	60.4509	85.5433	-108.437	56.8174	135.896	-28.6814	0.867533	136.458	-31.6079	-28.006	140.1	-37.445	-51.9577	171.198	-19.3883	-5.9289	174.544	-18.5359	-31.5643	182.591	-19.0626	-60.9767	194.487	-22.9549	5.73869	202.182	-20.9769	-21.6927	209.774	-20.7797	-47.3054	218.306	-38.6665	29.3117	229.297	-42.0843	8.77311	241.7	-37.0476	-8.33311	182.812	-14.0025	54.0166	186.523	-4.45138	90.1023	150.915	-8.13669	66.4238	
201	1.675	117.686	-37.4397	83.3522	106.162	-70.9361	72.9875	98.0623	-90.1391	62.5764	89.3902	-112.569	55.0651	133.376	-29.2418	1.68531	135.255	-31.1122	-28.0273	136.52	-35.9044	-51.7151	169.124	-19.8193	-4.68609	167.581	-17.5554	-33.1416	177.861	-16.8572	-64.2753	192.173	-23.3542	7.60464	199.833	-19.5353	-18.9606	201.768	-18.9932	-45.7538	213.807	-38.1641	28.39	226.387	-39.4571	12.1678	238.618	-35.7538	-9.37478	185.71	-15.3781	53.8737	180.955	-3.94536	85.8123	145.429	-10.6121	68.842	
202	1.68333	117.353	-39.921	80.3917	108.466	-72.2096	74.0881	99.311	-95.3564	59.3341	96.9524	-115.933	49.7351	128.926	-28.4373	-1.40928	131.538	-31.125	-27.5854	135.08	-34.3388	-52.7252	161.185	-20.0431	-3.1281	167.005	-16.783	-33.7979	170.301	-17.1114	-60.7347	185.032	-21.1423	4.38182	194.39	-17.4277	-22.734	199.217	-17.6847	-44.3886	212.481	-35.4939	26.4136	220.997	-36.1442	8.45881	234.847	-29.9137	-9.07359	180.832	-12.0738	55.6883	181.549	-4.53488	85.2385	144.557	-9.76041	67.1857	
203	1.69167	112.452	-41.712	79.8398	105.597	-74.6275	73.6103	104.335	-97.4945	56.3751	102.882	-120.428	46.2024	127.189	-29.0464	-1.60568	126.253	-29.9835	-26.1539	128.452	-32.9767	-54.8562	160.239	-17.2058	-6.91006	162.609	-15.904	-32.9131	170.559	-14.289	-62.0778	185.003	-19.7777	5.09145	189.642	-15.0266	-24.2386	196.983	-14.6284	-47.6826	208.221	-32.0647	22.0626	217.696	-32.8314	5.15777	227.587	-24.8151	-10.0947	177.157	-11.8734	53.9024	179.864	-1.37978	88.5669	140.69	-7.84272	64.8811	
204	1.7	113.893	-41.8358	83.4314	109.121	-75.9158	70.4427	106.556	-99.2173	53.7587	113.277	-120.453	42.9332	127.093	-28.1033	-1.79989	123.341	-30.3883	-27.2781	128.782	-32.089	-54.7667	158.292	-17.1761	-5.56235	161.737	-14.9009	-32.3648	162.92	-12.3041	-61.5969	179.707	-17.3324	2.35253	188.337	-12.6287	-23.6832	188.921	-11.6308	-47.9292	203.425	-29.7323	24.4342	216.853	-28.4012	7.88138	221.886	-19.0472	-10.1755	174.331	-13.1495	55.0456	174.715	-1.67054	85.3477	138.245	-9.24075	66.925	
205	1.70833	112.287	-43.7364	81.9895	105.132	-78.5799	70.397	111.754	-99.1916	50.1162	127.582	-115.656	34.7427	122.832	-29.4076	-1.62601	119.985	-30.8106	-28.0889	122.887	-32.2563	-48.5571	153.557	-17.3459	-2.48422	155.858	-14.6751	-31.2278	160.096	-9.89789	-63.9318	177.632	-14.3674	3.07217	179.199	-10.8314	-20.5694	182.131	-9.843	-45.9626	196.735	-27.2066	25.8479	208.753	-23.0595	7.86899	215.925	-11.5006	-12.0437	172.344	-9.03112	53.4211	167.132	0.376414	87.0548	135.365	-7.86669	66.1609	
206	1.71667	110.007	-44.4316	80.787	108.063	-80.9239	64.8414	116.382	-101.359	43.4286	135.503	-114.161	30.1933	119.787	-28.952	-0.79982	116.548	-31.5274	-25.2538	119.471	-32.4473	-51.455	148.423	-16.0545	-1.90478	151.794	-13.1681	-30.5235	152.829	-9.88202	-61.6587	172.452	-14.7203	6.78731	176.967	-8.4648	-23.6417	181.036	-5.13988	-48.7719	194.158	-25.0482	25.0218	203.315	-19.9678	4.69406	210.529	-8.68278	-10.2561	164.378	-9.8329	53.4188	167.179	-0.663304	83.9511	133.317	-9.99211	66.1028	
207	1.725	109.47	-45.8522	83.7171	110.045	-80.1064	62.7248	117.533	-100.676	40.5642	139.07	-111.982	28.0981	114.733	-30.0651	-0.362347	115.575	-31.1095	-25.8957	116.556	-34.6763	-49.3565	145.154	-16.3833	-7.34816	147.811	-13.7192	-30.2774	148.159	-9.55745	-62.346	169.451	-15.9515	7.09178	174.181	-8.47057	-24.572	177.33	-5.83271	-44.9066	191.061	-26.0234	25.3025	204.94	-19.0019	6.85721	207.376	-7.10668	-9.87934	162.898	-9.53988	54.1163	166.084	0.587015	88.2234	129.947	-8.86972	69.3567	
208	1.73333	107.724	-47.4612	82.2197	107.568	-81.9984	62.994	120.534	-97.3015	37.5802	143.896	-107.389	21.6768	112.167	-30.2777	1.84695	110.971	-32.1822	-22.1711	113.176	-34.0238	-53.7395	141.279	-16.0876	-6.28118	146.26	-12.3143	-30.5953	148.305	-8.98766	-59.6805	164.973	-15.4901	5.82951	168.977	-10.5623	-18.9929	175.347	-5.6604	-44.8689	190.754	-24.1658	20.8854	201.394	-19.5913	10.0278	204.54	-6.74295	-8.81118	160.098	-11.9791	54.6999	161.511	-0.778249	84.808	128.909	-10.6833	65.4144	
209	1.74167	105.649	-49.8674	83.6679	109.385	-82.0674	58.9942	122.245	-94.8163	37.0039	146.941	-102.957	20.1581	111.112	-31.3196	4.23379	111.143	-32.4278	-24.3278	113.326	-33.6934	-48.5664	141.615	-16.8382	-2.63201	144.062	-12.2336	-31.0568	142.78	-9.76258	-60.7369	163.526	-15.364	5.04477	170.468	-8.48361	-24.6792	174.299	-4.15892	-49.0571	187.994	-24.1922	21.5839	197.883	-18.0383	4.17038	202.746	-5.43014	-9.74992	162.516	-11.6607	53.167	162.532	-3.3308	86.4316	129.226	-12.2529	67.2702	
210	1.75	109.955	-48.6192	83.6324	112.048	-80.0052	56.2536	126.125	-92.4799	33.1807	145.337	-101.423	21.5165	108.877	-31.4224	0.953702	109.654	-31.7127	-22.7058	107.286	-33.7391	-52.6316	140.276	-15.4438	-7.21004	136.903	-12.7251	-32.4622	141.658	-9.94178	-59.7928	162.814	-15.5109	6.50968	164.757	-9.90666	-23.4782	167.713	-5.72633	-46.9396	186.869	-24.5124	25.2744	195.115	-19.4993	5.45272	200.52	-6.61832	-11.918	156.96	-12.5235	55.1467	158.1	-1.59601	88.8049	124.837	-11.9617	69.3173	
211	1.75833	105.334	-51.7634	81.6382	107.388	-84.073	57.5389	122.721	-95.0716	30.539	147.917	-101.018	15.6909	107.128	-31.8272	-1.16503	105.395	-31.9715	-24.8668	105.052	-34.3228	-53.6324	136.227	-16.2054	-4.03542	137.907	-13.7151	-30.9354	140.3	-9.74463	-60.5562	159.837	-15.4273	1.93144	166.61	-7.85288	-23.3265	170.277	-4.66049	-47.7774	187.182	-23.7537	21.5658	192.14	-21.0101	7.66092	201.5	-5.15142	-12.1115	155.605	-11.5958	52.4614	159.827	-4.27323	88.1705	124.927	-11.6005	66.7111	
212	1.76667	104.745	-52.3413	79.6054	110.453	-80.8771	56.3197	122.94	-94.1077	28.8212	149.98	-97.2672	13.8561	105.997	-31.7369	-0.492164	105.034	-33.6195	-23.3153	104.36	-34.761	-52.9321	137.235	-15.3284	-7.7662	135.44	-14.5062	-30.7419	140.336	-9.65955	-60.3068	163.864	-13.7603	1.20251	163.588	-8.28438	-24.6326	167.978	-4.3432	-48.5365	187.571	-23.8454	19.9942	194.146	-18.5585	4.13203	201.455	-5.66696	-12.984	155.853	-11.0009	54.2211	155.882	-5.83706	85.2849	122.53	-13.3009	67.8751	
213	1.775	106.386	-51.3339	81.7334	108.765	-81.3666	51.1725	125.446	-90.9655	26.9495	152.897	-91.4441	13.4196	106.159	-32.3239	2.77836	104.129	-33.6973	-23.9344	103.693	-35.2747	-53.8297	136.295	-16.4793	-3.91982	136.447	-12.9717	-32.1221	142.186	-8.30041	-64.2326	158.547	-15.0559	1.34096	163.44	-9.64287	-22.1407	164.434	-4.22523	-50.3444	184.777	-24.6956	21.7464	194.784	-19.3679	4.80586	196.756	-7.11434	-13.0908	156.935	-10.9101	57.0025	158.311	-4.78673	89.1045	121.821	-12.8677	72.037	
